<svg width="18" height="31" viewBox="0 0 18 31" fill="none" xmlns="http://www.w3.org/2000/svg">
<path d="M0.488727 16.7096L14.1234 30.5048C14.4387 30.8241 14.8597 31 15.3085 31C15.7574 31 16.1784 30.8241 16.4937 30.5048L17.4978 29.4891C18.1512 28.8272 18.1512 27.7516 17.4978 27.0908L6.04849 15.5064L17.5105 3.90925C17.8259 3.58992 18 3.16424 18 2.71034C18 2.25593 17.8259 1.83025 17.5105 1.51067L16.5064 0.495241C16.1908 0.175918 15.7701 1.71241e-06 15.3213 1.67316e-06C14.8724 1.63392e-06 14.4514 0.175918 14.1361 0.495241L0.488727 14.303C0.172626 14.6233 -0.000990427 15.051 5.16925e-06 15.5057C-0.000990507 15.9621 0.172626 16.3895 0.488727 16.7096Z" fill="white"/>
</svg>
