<svg width="20" height="20" viewBox="0 0 20 20" fill="none" xmlns="http://www.w3.org/2000/svg">
<path fill-rule="evenodd" clip-rule="evenodd" d="M19.6339 17.5921C19.5011 17.7244 19.3409 17.8937 19.1711 18.0728C18.7474 18.5225 18.2181 19.0816 17.8863 19.3083C16.1406 20.5012 13.8053 19.9304 12.1534 19.2421C9.97421 18.3341 7.6017 16.6604 5.47145 14.5298C3.3392 12.399 1.66576 10.0256 0.757795 7.84757C0.0703267 6.19521 -0.501639 3.85925 0.691392 2.11314C0.917944 1.78111 1.47827 1.25255 1.92739 0.827976C2.10707 0.658677 2.27503 0.498715 2.40784 0.366331C2.64362 0.13171 2.9627 0 3.29532 0C3.62793 0 3.94701 0.13171 4.18279 0.366331L7.39468 3.57745C7.62916 3.81323 7.76078 4.13225 7.76078 4.46478C7.76078 4.79732 7.62916 5.11633 7.39468 5.35211L6.51972 6.22536C6.22751 6.51545 6.03678 6.89214 5.97591 7.29937C5.91504 7.7066 5.98728 8.1226 6.18188 8.48546C7.38533 10.757 9.24324 12.6147 11.5148 13.8178C11.8776 14.0124 12.2935 14.0845 12.7006 14.0235C13.1077 13.9626 13.4842 13.7717 13.774 13.4794L14.6468 12.6061C14.8826 12.3715 15.2017 12.2398 15.5343 12.2398C15.8669 12.2398 16.186 12.3715 16.4218 12.6061L19.6339 15.8178C19.8684 16.0535 20 16.3724 20 16.7049C20 17.0374 19.8684 17.3564 19.6339 17.5921Z" fill="#212121"/>
<path fill-rule="evenodd" clip-rule="evenodd" d="M19.6339 17.5921C19.5011 17.7244 19.3409 17.8937 19.1711 18.0728C18.7474 18.5225 18.2181 19.0816 17.8863 19.3083C16.1406 20.5012 13.8053 19.9304 12.1534 19.2421C9.97421 18.3341 7.6017 16.6604 5.47145 14.5298C3.3392 12.399 1.66576 10.0256 0.757795 7.84757C0.0703267 6.19521 -0.501639 3.85925 0.691392 2.11314C0.917944 1.78111 1.47827 1.25255 1.92739 0.827976C2.10707 0.658677 2.27503 0.498715 2.40784 0.366331C2.64362 0.13171 2.9627 0 3.29532 0C3.62793 0 3.94701 0.13171 4.18279 0.366331L7.39468 3.57745C7.62916 3.81323 7.76078 4.13225 7.76078 4.46478C7.76078 4.79732 7.62916 5.11633 7.39468 5.35211L6.51972 6.22536C6.22751 6.51545 6.03678 6.89214 5.97591 7.29937C5.91504 7.7066 5.98728 8.1226 6.18188 8.48546C7.38533 10.757 9.24324 12.6147 11.5148 13.8178C11.8776 14.0124 12.2935 14.0845 12.7006 14.0235C13.1077 13.9626 13.4842 13.7717 13.774 13.4794L14.6468 12.6061C14.8826 12.3715 15.2017 12.2398 15.5343 12.2398C15.8669 12.2398 16.186 12.3715 16.4218 12.6061L19.6339 15.8178C19.8684 16.0535 20 16.3724 20 16.7049C20 17.0374 19.8684 17.3564 19.6339 17.5921Z" fill="url(#paint0_linear_66_1007)"/>
<path fill-rule="evenodd" clip-rule="evenodd" d="M19.6339 17.5921C19.5011 17.7244 19.3409 17.8937 19.1711 18.0728C18.7474 18.5225 18.2181 19.0816 17.8863 19.3083C16.1406 20.5012 13.8053 19.9304 12.1534 19.2421C9.97421 18.3341 7.6017 16.6604 5.47145 14.5298C3.3392 12.399 1.66576 10.0256 0.757795 7.84757C0.0703267 6.19521 -0.501639 3.85925 0.691392 2.11314C0.917944 1.78111 1.47827 1.25255 1.92739 0.827976C2.10707 0.658677 2.27503 0.498715 2.40784 0.366331C2.64362 0.13171 2.9627 0 3.29532 0C3.62793 0 3.94701 0.13171 4.18279 0.366331L7.39468 3.57745C7.62916 3.81323 7.76078 4.13225 7.76078 4.46478C7.76078 4.79732 7.62916 5.11633 7.39468 5.35211L6.51972 6.22536C6.22751 6.51545 6.03678 6.89214 5.97591 7.29937C5.91504 7.7066 5.98728 8.1226 6.18188 8.48546C7.38533 10.757 9.24324 12.6147 11.5148 13.8178C11.8776 14.0124 12.2935 14.0845 12.7006 14.0235C13.1077 13.9626 13.4842 13.7717 13.774 13.4794L14.6468 12.6061C14.8826 12.3715 15.2017 12.2398 15.5343 12.2398C15.8669 12.2398 16.186 12.3715 16.4218 12.6061L19.6339 15.8178C19.8684 16.0535 20 16.3724 20 16.7049C20 17.0374 19.8684 17.3564 19.6339 17.5921Z" fill="url(#paint1_linear_66_1007)"/>
<defs>
<linearGradient id="paint0_linear_66_1007" x1="10" y1="0" x2="10" y2="20" gradientUnits="userSpaceOnUse">
<stop stop-color="#FE5159"/>
<stop offset="1" stop-color="#F2151F"/>
</linearGradient>
<linearGradient id="paint1_linear_66_1007" x1="12.2376" y1="0" x2="12.2376" y2="20" gradientUnits="userSpaceOnUse">
<stop stop-color="#6684FF"/>
<stop offset="1" stop-color="#435CC0"/>
</linearGradient>
</defs>
</svg>
