
<svg width="25" height="25" viewBox="0 0 25 25" fill="none" xmlns="http://www.w3.org/2000/svg">
<path d="M12.5 0C10.0277 0 7.61099 0.733112 5.55538 2.10663C3.49976 3.48015 1.89761 5.43238 0.951511 7.71645C0.0054161 10.0005 -0.242126 12.5139 0.24019 14.9386C0.722505 17.3634 1.91301 19.5907 3.66117 21.3388C5.40933 23.087 7.63661 24.2775 10.0614 24.7598C12.4861 25.2421 14.9995 24.9946 17.2835 24.0485C19.5676 23.1024 21.5199 21.5002 22.8934 19.4446C24.2669 17.389 25 14.9723 25 12.5C25 9.18479 23.683 6.00537 21.3388 3.66116C18.9946 1.31696 15.8152 0 12.5 0ZM18.1818 13.6364H13.6364V18.1818C13.6364 18.4832 13.5166 18.7722 13.3035 18.9853C13.0904 19.1985 12.8014 19.3182 12.5 19.3182C12.1986 19.3182 11.9096 19.1985 11.6965 18.9853C11.4834 18.7722 11.3636 18.4832 11.3636 18.1818V13.6364H6.81819C6.5168 13.6364 6.22777 13.5166 6.01466 13.3035C5.80155 13.0904 5.68182 12.8014 5.68182 12.5C5.68182 12.1986 5.80155 11.9096 6.01466 11.6965C6.22777 11.4834 6.5168 11.3636 6.81819 11.3636H11.3636V6.81818C11.3636 6.5168 11.4834 6.22776 11.6965 6.01465C11.9096 5.80154 12.1986 5.68182 12.5 5.68182C12.8014 5.68182 13.0904 5.80154 13.3035 6.01465C13.5166 6.22776 13.6364 6.5168 13.6364 6.81818V11.3636H18.1818C18.4832 11.3636 18.7722 11.4834 18.9854 11.6965C19.1985 11.9096 19.3182 12.1986 19.3182 12.5C19.3182 12.8014 19.1985 13.0904 18.9854 13.3035C18.7722 13.5166 18.4832 13.6364 18.1818 13.6364Z" fill="black"/>
<path d="M12.5 0C10.0277 0 7.61099 0.733112 5.55538 2.10663C3.49976 3.48015 1.89761 5.43238 0.951511 7.71645C0.0054161 10.0005 -0.242126 12.5139 0.24019 14.9386C0.722505 17.3634 1.91301 19.5907 3.66117 21.3388C5.40933 23.087 7.63661 24.2775 10.0614 24.7598C12.4861 25.2421 14.9995 24.9946 17.2835 24.0485C19.5676 23.1024 21.5199 21.5002 22.8934 19.4446C24.2669 17.389 25 14.9723 25 12.5C25 9.18479 23.683 6.00537 21.3388 3.66116C18.9946 1.31696 15.8152 0 12.5 0ZM18.1818 13.6364H13.6364V18.1818C13.6364 18.4832 13.5166 18.7722 13.3035 18.9853C13.0904 19.1985 12.8014 19.3182 12.5 19.3182C12.1986 19.3182 11.9096 19.1985 11.6965 18.9853C11.4834 18.7722 11.3636 18.4832 11.3636 18.1818V13.6364H6.81819C6.5168 13.6364 6.22777 13.5166 6.01466 13.3035C5.80155 13.0904 5.68182 12.8014 5.68182 12.5C5.68182 12.1986 5.80155 11.9096 6.01466 11.6965C6.22777 11.4834 6.5168 11.3636 6.81819 11.3636H11.3636V6.81818C11.3636 6.5168 11.4834 6.22776 11.6965 6.01465C11.9096 5.80154 12.1986 5.68182 12.5 5.68182C12.8014 5.68182 13.0904 5.80154 13.3035 6.01465C13.5166 6.22776 13.6364 6.5168 13.6364 6.81818V11.3636H18.1818C18.4832 11.3636 18.7722 11.4834 18.9854 11.6965C19.1985 11.9096 19.3182 12.1986 19.3182 12.5C19.3182 12.8014 19.1985 13.0904 18.9854 13.3035C18.7722 13.5166 18.4832 13.6364 18.1818 13.6364Z" fill="url(#paint0_linear_66_5014)"/>
<defs>
<linearGradient id="paint0_linear_66_5014" x1="15.297" y1="0" x2="15.297" y2="25" gradientUnits="userSpaceOnUse">
<stop stop-color="#6684FF"/>
<stop offset="1" stop-color="#435CC0"/>
</linearGradient>
</defs>
</svg>
