<svg width="20" height="20" viewBox="0 0 20 20" fill="none" xmlns="http://www.w3.org/2000/svg">
<path d="M17.0712 2.92896C15.1825 1.04025 12.6711 0 10.0001 0C7.32893 0 4.81767 1.04025 2.92883 2.92896C1.04 4.81779 0 7.32893 0 10.0001C0 12.6712 1.04012 15.1825 2.92883 17.0713C4.81767 18.96 7.32893 20.0002 10.0001 20.0002C12.6711 20.0002 15.1825 18.96 17.0712 17.0713C18.9598 15.1825 20 12.6712 20 10.0001C20 7.32906 18.9599 4.81779 17.0712 2.92896ZM10.0001 17.4412C5.89705 17.4412 2.55897 14.1031 2.55897 10.0001C2.55897 5.89717 5.89705 2.55909 10.0001 2.55909C14.1029 2.55909 17.441 5.89717 17.441 10.0001C17.441 14.1031 14.1029 17.4412 10.0001 17.4412Z" fill="black"/>
<path d="M17.0712 2.92896C15.1825 1.04025 12.6711 0 10.0001 0C7.32893 0 4.81767 1.04025 2.92883 2.92896C1.04 4.81779 0 7.32893 0 10.0001C0 12.6712 1.04012 15.1825 2.92883 17.0713C4.81767 18.96 7.32893 20.0002 10.0001 20.0002C12.6711 20.0002 15.1825 18.96 17.0712 17.0713C18.9598 15.1825 20 12.6712 20 10.0001C20 7.32906 18.9599 4.81779 17.0712 2.92896ZM10.0001 17.4412C5.89705 17.4412 2.55897 14.1031 2.55897 10.0001C2.55897 5.89717 5.89705 2.55909 10.0001 2.55909C14.1029 2.55909 17.441 5.89717 17.441 10.0001C17.441 14.1031 14.1029 17.4412 10.0001 17.4412Z" fill="url(#paint0_linear_66_1011)"/>
<path d="M17.0712 2.92896C15.1825 1.04025 12.6711 0 10.0001 0C7.32893 0 4.81767 1.04025 2.92883 2.92896C1.04 4.81779 0 7.32893 0 10.0001C0 12.6712 1.04012 15.1825 2.92883 17.0713C4.81767 18.96 7.32893 20.0002 10.0001 20.0002C12.6711 20.0002 15.1825 18.96 17.0712 17.0713C18.9598 15.1825 20 12.6712 20 10.0001C20 7.32906 18.9599 4.81779 17.0712 2.92896ZM10.0001 17.4412C5.89705 17.4412 2.55897 14.1031 2.55897 10.0001C2.55897 5.89717 5.89705 2.55909 10.0001 2.55909C14.1029 2.55909 17.441 5.89717 17.441 10.0001C17.441 14.1031 14.1029 17.4412 10.0001 17.4412Z" fill="url(#paint1_linear_66_1011)"/>
<path d="M10.5 4C6.91586 4 4 6.91576 4 10.4999C4 14.0842 6.91586 17 10.5 17C14.0841 17 17 14.0842 17 10.4999C17 6.91576 14.0841 4 10.5 4ZM14.9149 11.1132H10.5C10.1614 11.1132 9.88683 10.8385 9.88683 10.4999V6.08502C9.88683 5.74643 10.1614 5.47185 10.5 5.47185C10.8386 5.47185 11.1132 5.74643 11.1132 6.08502V9.88676H14.9149C15.2535 9.88676 15.528 10.1613 15.528 10.4999C15.528 10.8385 15.2535 11.1132 14.9149 11.1132Z" fill="black"/>
<path d="M10.5 4C6.91586 4 4 6.91576 4 10.4999C4 14.0842 6.91586 17 10.5 17C14.0841 17 17 14.0842 17 10.4999C17 6.91576 14.0841 4 10.5 4ZM14.9149 11.1132H10.5C10.1614 11.1132 9.88683 10.8385 9.88683 10.4999V6.08502C9.88683 5.74643 10.1614 5.47185 10.5 5.47185C10.8386 5.47185 11.1132 5.74643 11.1132 6.08502V9.88676H14.9149C15.2535 9.88676 15.528 10.1613 15.528 10.4999C15.528 10.8385 15.2535 11.1132 14.9149 11.1132Z" fill="url(#paint2_linear_66_1011)"/>
<path d="M10.5 4C6.91586 4 4 6.91576 4 10.4999C4 14.0842 6.91586 17 10.5 17C14.0841 17 17 14.0842 17 10.4999C17 6.91576 14.0841 4 10.5 4ZM14.9149 11.1132H10.5C10.1614 11.1132 9.88683 10.8385 9.88683 10.4999V6.08502C9.88683 5.74643 10.1614 5.47185 10.5 5.47185C10.8386 5.47185 11.1132 5.74643 11.1132 6.08502V9.88676H14.9149C15.2535 9.88676 15.528 10.1613 15.528 10.4999C15.528 10.8385 15.2535 11.1132 14.9149 11.1132Z" fill="url(#paint3_linear_66_1011)"/>
<defs>
<linearGradient id="paint0_linear_66_1011" x1="10" y1="0" x2="10" y2="20.0002" gradientUnits="userSpaceOnUse">
<stop stop-color="#FE5159"/>
<stop offset="1" stop-color="#F2151F"/>
</linearGradient>
<linearGradient id="paint1_linear_66_1011" x1="12.2376" y1="0" x2="12.2376" y2="20.0002" gradientUnits="userSpaceOnUse">
<stop stop-color="#6684FF"/>
<stop offset="1" stop-color="#435CC0"/>
</linearGradient>
<linearGradient id="paint2_linear_66_1011" x1="10.5" y1="4" x2="10.5" y2="17" gradientUnits="userSpaceOnUse">
<stop stop-color="#FE5159"/>
<stop offset="1" stop-color="#F2151F"/>
</linearGradient>
<linearGradient id="paint3_linear_66_1011" x1="11.9544" y1="4" x2="11.9544" y2="17" gradientUnits="userSpaceOnUse">
<stop stop-color="#6684FF"/>
<stop offset="1" stop-color="#435CC0"/>
</linearGradient>
</defs>
</svg>
