<svg width="30" height="30" viewBox="0 0 30 30" fill="none" xmlns="http://www.w3.org/2000/svg">
<path d="M28.946 4.70775L18.6527 15.0011L28.8927 25.2411C29.1334 25.4673 29.326 25.7398 29.4589 26.0422C29.5918 26.3446 29.6622 26.6708 29.666 27.0011C29.666 27.7083 29.3851 28.3866 28.885 28.8867C28.3849 29.3868 27.7066 29.6678 26.9993 29.6678C26.6724 29.674 26.3476 29.6133 26.045 29.4895C25.7423 29.3657 25.4682 29.1813 25.2393 28.9477L14.9993 18.5744L4.62601 28.9477C4.19604 29.3873 3.61378 29.645 2.99935 29.6678C2.2921 29.6678 1.61383 29.3868 1.11373 28.8867C0.613633 28.3866 0.33268 27.7083 0.33268 27.0011C0.318581 26.6612 0.375306 26.3222 0.499255 26.0054C0.623204 25.6886 0.811671 25.4011 1.05268 25.1611L11.346 15.0011L1.07935 4.73442C0.846622 4.5091 0.660822 4.23992 0.532669 3.94242C0.404514 3.64492 0.336544 3.32499 0.332682 3.00108C0.332682 2.29384 0.613634 1.61556 1.11373 1.11547C1.61383 0.615369 2.2921 0.334417 2.99935 0.334417C3.32629 0.3282 3.65105 0.388858 3.9537 0.51267C4.25635 0.636482 4.53051 0.820836 4.75935 1.05442L14.9993 11.4277L25.3727 1.05442C25.8027 0.614911 26.3849 0.35719 26.9993 0.334418C27.7066 0.334418 28.3849 0.61537 28.885 1.11547C29.3851 1.61556 29.666 2.29384 29.666 3.00108C29.658 3.64108 29.3993 4.25442 28.946 4.70775Z" fill="#0169F4"/>
<path d="M28.946 4.70775L18.6527 15.0011L28.8927 25.2411C29.1334 25.4673 29.326 25.7398 29.4589 26.0422C29.5918 26.3446 29.6622 26.6708 29.666 27.0011C29.666 27.7083 29.3851 28.3866 28.885 28.8867C28.3849 29.3868 27.7066 29.6678 26.9993 29.6678C26.6724 29.674 26.3476 29.6133 26.045 29.4895C25.7423 29.3657 25.4682 29.1813 25.2393 28.9477L14.9993 18.5744L4.62601 28.9477C4.19604 29.3873 3.61378 29.645 2.99935 29.6678C2.2921 29.6678 1.61383 29.3868 1.11373 28.8867C0.613633 28.3866 0.33268 27.7083 0.33268 27.0011C0.318581 26.6612 0.375306 26.3222 0.499255 26.0054C0.623204 25.6886 0.811671 25.4011 1.05268 25.1611L11.346 15.0011L1.07935 4.73442C0.846622 4.5091 0.660822 4.23992 0.532669 3.94242C0.404514 3.64492 0.336544 3.32499 0.332682 3.00108C0.332682 2.29384 0.613634 1.61556 1.11373 1.11547C1.61383 0.615369 2.2921 0.334417 2.99935 0.334417C3.32629 0.3282 3.65105 0.388858 3.9537 0.51267C4.25635 0.636482 4.53051 0.820836 4.75935 1.05442L14.9993 11.4277L25.3727 1.05442C25.8027 0.614911 26.3849 0.35719 26.9993 0.334418C27.7066 0.334418 28.3849 0.61537 28.885 1.11547C29.3851 1.61556 29.666 2.29384 29.666 3.00108C29.658 3.64108 29.3993 4.25442 28.946 4.70775Z" fill="url(#paint0_linear_228_11077)"/>
<defs>
<linearGradient id="paint0_linear_228_11077" x1="29.666" y1="15.0011" x2="0.330573" y2="15.0011" gradientUnits="userSpaceOnUse">
<stop stop-color="#FE5159"/>
<stop offset="1" stop-color="#F2151F"/>
</linearGradient>
</defs>
</svg>
