<svg width="30" height="30" viewBox="0 0 30 30" fill="none" xmlns="http://www.w3.org/2000/svg">
<path d="M28.946 4.7058L18.6527 14.9991L28.8927 25.2391C29.1334 25.4653 29.326 25.7378 29.4589 26.0402C29.5918 26.3427 29.6622 26.6688 29.666 26.9991C29.666 27.7064 29.3851 28.3847 28.885 28.8847C28.3849 29.3848 27.7066 29.6658 26.9993 29.6658C26.6724 29.672 26.3476 29.6114 26.045 29.4875C25.7423 29.3637 25.4682 29.1794 25.2393 28.9458L14.9993 18.5725L4.62601 28.9458C4.19604 29.3853 3.61378 29.643 2.99935 29.6658C2.2921 29.6658 1.61383 29.3848 1.11373 28.8847C0.613633 28.3846 0.33268 27.7064 0.33268 26.9991C0.318581 26.6593 0.375306 26.3202 0.499255 26.0034C0.623204 25.6867 0.811671 25.3992 1.05268 25.1591L11.346 14.9991L1.07935 4.73246C0.846622 4.50715 0.660822 4.23797 0.532669 3.94047C0.404514 3.64297 0.336544 3.32304 0.332682 2.99913C0.332682 2.29189 0.613634 1.61361 1.11373 1.11351C1.61383 0.613415 2.2921 0.332464 2.99935 0.332464C3.32629 0.326247 3.65105 0.386905 3.9537 0.510717C4.25635 0.634529 4.53051 0.818883 4.75935 1.05246L14.9993 11.4258L25.3727 1.05246C25.8027 0.612958 26.3849 0.355237 26.9993 0.332465C27.7066 0.332465 28.3849 0.613417 28.885 1.11351C29.3851 1.61361 29.666 2.29189 29.666 2.99913C29.658 3.63913 29.3993 4.25247 28.946 4.7058Z" fill="white"/>
</svg>
