<svg width="16" height="30" viewBox="0 0 16 30" fill="none" xmlns="http://www.w3.org/2000/svg">
<path d="M4.45476 16.9337C4.34339 16.9337 1.89327 16.9337 0.779583 16.9337C0.185615 16.9337 0 16.7084 0 16.1452C0 14.6433 0 13.1039 0 11.602C0 11.0013 0.222738 10.8135 0.779583 10.8135H4.45476C4.45476 10.7009 4.45476 8.52315 4.45476 7.50939C4.45476 6.00751 4.71462 4.58073 5.45708 3.26658C6.23666 1.91489 7.35035 1.01377 8.76102 0.48811C9.6891 0.150187 10.6172 0 11.6195 0H15.2575C15.7773 0 16 0.225282 16 0.750939V5.03129C16 5.55695 15.7773 5.78223 15.2575 5.78223C14.2552 5.78223 13.2529 5.78223 12.2506 5.81977C11.2483 5.81977 10.7285 6.30788 10.7285 7.3592C10.6914 8.48561 10.7285 9.57447 10.7285 10.7384H15.0348C15.6288 10.7384 15.8515 10.9637 15.8515 11.5645V16.1076C15.8515 16.7084 15.6659 16.8961 15.0348 16.8961C13.6984 16.8961 10.8399 16.8961 10.7285 16.8961V29.1364C10.7285 29.7747 10.5429 30 9.87471 30C8.31555 30 6.7935 30 5.23434 30C4.67749 30 4.45476 29.7747 4.45476 29.2115C4.45476 25.2691 4.45476 17.0463 4.45476 16.9337Z" fill="white"/>
</svg>
