<svg width="23" height="24" viewBox="0 0 23 24" fill="none" xmlns="http://www.w3.org/2000/svg">
<path d="M22.6406 11.0979L20.125 8.64668V2.44746C20.125 2.05413 19.803 1.73491 19.4062 1.73491H16.0521C15.6553 1.73491 15.3333 2.05413 15.3333 2.44746V4.03218L11.9868 0.973901C11.708 0.718332 11.2767 0.723082 11.0026 0.983402L0.354583 11.1026C0.129375 11.3259 0 11.6337 0 11.9482C0 12.6028 0.537625 13.1358 1.19792 13.1358H2.875V22.1615C2.875 22.9481 3.519 23.5866 4.3125 23.5866H8.38542C8.78217 23.5866 9.10417 23.2673 9.10417 22.874V16.461C9.10417 16.3309 9.2115 16.2235 9.34375 16.2235H13.6562C13.7875 16.2235 13.8958 16.3309 13.8958 16.461V22.874C13.8958 23.2673 14.2178 23.5866 14.6146 23.5866H18.6875C19.481 23.5866 20.125 22.9481 20.125 22.1615V13.1358H21.8021C22.4624 13.1358 23 12.6028 23 11.9482C23 11.6337 22.8706 11.3259 22.6406 11.0979Z" fill="white"/>
</svg>
