<svg width="140" height="51" viewBox="0 0 140 51" fill="none" xmlns="http://www.w3.org/2000/svg">
<path d="M67.7495 12.0746C68.8934 12.3061 69.7581 12.7078 70.3436 13.2798C70.9292 13.8381 71.222 14.6415 71.222 15.6901V15.7718C71.222 17.3105 70.5819 18.3999 69.3019 19.04C68.0355 19.6664 66.2107 19.9864 63.8277 20H63.7868H62.9902H51.8375V4.88459H64.7673C66.3469 4.89821 67.6065 5.22503 68.5461 5.86505C69.4857 6.50507 69.9555 7.41063 69.9555 8.58174V8.66344C69.9555 9.54858 69.7717 10.2703 69.404 10.8286C69.0364 11.3869 68.4849 11.8023 67.7495 12.0746ZM62.3978 10.8082C63.0787 10.8082 63.5757 10.7946 63.889 10.7673C64.2158 10.7265 64.4881 10.6039 64.706 10.3997C64.9375 10.1954 65.0532 9.85497 65.0532 9.37836C65.0532 8.9426 64.9443 8.6294 64.7264 8.43875C64.5085 8.24811 64.2294 8.13236 63.889 8.09151C63.5485 8.03704 63.0515 8.0098 62.3978 8.0098H62.3774H56.5559V10.7878C57.9585 10.7878 58.8845 10.7946 59.3339 10.8082H60.3144H62.3978ZM63.0719 16.5888C63.8345 16.5888 64.4064 16.5684 64.7877 16.5275C65.169 16.4731 65.4754 16.3369 65.7069 16.119C65.9384 15.8875 66.0541 15.5267 66.0541 15.0364C66.0541 14.5598 65.9384 14.2194 65.7069 14.0151C65.4754 13.7972 65.169 13.6679 64.7877 13.627C64.4064 13.5725 63.8345 13.5453 63.0719 13.5453H63.0515H56.5559V16.5684C58.476 16.5684 59.8377 16.5752 60.6412 16.5888C61.4582 16.5888 62.0165 16.5888 62.3161 16.5888H63.0719ZM86.9853 14.1172H77.5484V16.4254L88.7011 16.3437V20H72.5031V4.88459H88.7011L88.7215 8.54088H77.5484V10.5427H86.9853V14.1172ZM95.142 4.88459V16.119H104.661V20H90.0968V4.88459H95.142ZM111.08 4.88459V16.119H120.599V20H106.035V4.88459H111.08ZM136.455 14.1172H127.018V16.4254L138.171 16.3437V20H121.973V4.88459H138.171L138.191 8.54088H127.018V10.5427H136.455V14.1172Z" fill="#212121"/>
<path d="M72.8673 36.0192L77.8098 26.6327H83.0014L74.9232 42H69.7315L67.0111 33.6103L64.2491 42H59.0575L51.0208 26.6327H56.2747L61.1549 36.0192L64.436 26.6327H69.6692L72.8673 36.0192ZM91.7859 26.3004C93.6826 26.3004 95.3924 26.6534 96.9153 27.3595C98.452 28.0517 99.6495 29.0139 100.508 30.2461C101.38 31.4644 101.816 32.8419 101.816 34.3786C101.816 35.9015 101.38 37.2721 100.508 38.4904C99.6495 39.7087 98.4589 40.6709 96.936 41.377C95.4131 42.0692 93.7034 42.4153 91.8067 42.4153C89.9792 42.4153 88.2902 42.0692 86.7396 41.377C85.189 40.6709 83.9569 39.7087 83.0431 38.4904C82.1432 37.2583 81.6933 35.8877 81.6933 34.3786C81.6933 32.8557 82.1432 31.4782 83.0431 30.2461C83.9569 29.0139 85.1821 28.0517 86.7188 27.3595C88.2694 26.6534 89.9584 26.3004 91.7859 26.3004ZM91.8067 38.532C92.582 38.532 93.3226 38.3658 94.0287 38.0336C94.7486 37.7013 95.3301 37.2237 95.7731 36.6007C96.2161 35.9777 96.4376 35.237 96.4376 34.3786C96.4376 33.5203 96.2092 32.7796 95.7523 32.1566C95.3093 31.5198 94.7278 31.0421 94.0079 30.7237C93.288 30.3914 92.5404 30.2253 91.7651 30.2253C90.976 30.2253 90.2284 30.3914 89.5223 30.7237C88.8163 31.056 88.2417 31.5405 87.7987 32.1774C87.3695 32.8004 87.1549 33.5341 87.1549 34.3786C87.1549 35.237 87.3764 35.9777 87.8195 36.6007C88.2625 37.2237 88.837 37.7013 89.5431 38.0336C90.263 38.3658 91.0175 38.532 91.8067 38.532ZM112.735 26.3004C114.632 26.3004 116.342 26.6534 117.864 27.3595C119.401 28.0517 120.599 29.0139 121.457 30.2461C122.329 31.4644 122.765 32.8419 122.765 34.3786C122.765 35.9015 122.329 37.2721 121.457 38.4904C120.599 39.7087 119.408 40.6709 117.885 41.377C116.362 42.0692 114.653 42.4153 112.756 42.4153C110.928 42.4153 109.239 42.0692 107.689 41.377C106.138 40.6709 104.906 39.7087 103.992 38.4904C103.092 37.2583 102.642 35.8877 102.642 34.3786C102.642 32.8557 103.092 31.4782 103.992 30.2461C104.906 29.0139 106.131 28.0517 107.668 27.3595C109.219 26.6534 110.908 26.3004 112.735 26.3004ZM112.756 38.532C113.531 38.532 114.272 38.3658 114.978 38.0336C115.698 37.7013 116.279 37.2237 116.722 36.6007C117.165 35.9777 117.387 35.237 117.387 34.3786C117.387 33.5203 117.158 32.7796 116.702 32.1566C116.258 31.5198 115.677 31.0421 114.957 30.7237C114.237 30.3914 113.49 30.2253 112.714 30.2253C111.925 30.2253 111.178 30.3914 110.472 30.7237C109.765 31.056 109.191 31.5405 108.748 32.1774C108.319 32.8004 108.104 33.5341 108.104 34.3786C108.104 35.237 108.326 35.9777 108.769 36.6007C109.212 37.2237 109.786 37.7013 110.492 38.0336C111.212 38.3658 111.967 38.532 112.756 38.532ZM129.157 26.6327V38.0543H138.834V42H124.028V26.6327H129.157Z" fill="#212121"/>
<path d="M40.9951 40.6111C40.9048 39.3966 40.8076 38.1907 40.7059 37.0267C40.6063 35.8837 40.5009 34.756 40.3896 33.6437C40.0761 30.4281 39.7093 27.2754 39.2985 24.2738C39.1594 23.2356 39.0169 22.2373 38.875 21.3063C38.4014 17.8709 37.7258 14.4665 36.8518 11.1106C36.5406 10.0271 35.9776 9.03258 35.2087 8.20849C34.4398 7.3844 33.4868 6.75412 32.4278 6.36917L26.2534 4.12542C25.8817 3.98789 25.4771 3.96684 25.0932 4.06507C24.7093 4.16329 24.3644 4.37613 24.1044 4.67527C24.08 4.7007 24.056 4.72819 24.0357 4.75156C23.5996 5.25438 23.0613 5.65842 22.4568 5.93676C21.8524 6.21509 21.1955 6.36133 20.5302 6.36573H20.4996C19.8408 6.36605 19.1893 6.22736 18.5877 5.95869C17.9861 5.69003 17.4478 5.29744 17.0081 4.80655C17.0081 4.80655 16.9308 4.71445 16.8941 4.66908C16.6347 4.36937 16.2897 4.15651 15.9056 4.05923C15.5215 3.96194 15.1168 3.98493 14.7462 4.12507L8.57204 6.36883C7.51281 6.75381 6.55969 7.38422 5.79067 8.2085C5.02164 9.03278 4.45853 10.0275 4.14742 11.1113C3.27358 14.4668 2.59833 17.8709 2.1252 21.306C1.98473 22.2284 1.84186 23.2257 1.70139 24.2704C1.70139 24.2766 1.70139 24.2828 1.69898 24.2896C1.29372 27.2571 0.926229 30.4068 0.607167 33.6492C0.496921 34.7582 0.393544 35.8871 0.293944 37.0267C0.19091 38.1907 0.0950886 39.398 0.00476214 40.6114C-0.031798 41.1496 0.143234 41.6808 0.492528 42.0917C0.841821 42.5026 1.33773 42.7606 1.87449 42.8108L6.24347 43.2006L6.21325 44.0185C6.20402 44.2751 6.24655 44.531 6.33828 44.7709C6.43002 45.0107 6.56909 45.2296 6.7472 45.4146C6.92531 45.5995 7.13881 45.7466 7.37497 45.8472C7.61113 45.9478 7.86512 45.9998 8.12178 46H32.8774C33.1341 45.9998 33.3881 45.948 33.6244 45.8474C33.8606 45.7469 34.0741 45.5998 34.2523 45.4149C34.4305 45.23 34.5696 45.0111 34.6614 44.7713C34.7532 44.5314 34.7958 44.2755 34.7866 44.0188L34.7564 43.2019L39.1261 42.8122C39.663 42.7618 40.159 42.5035 40.5082 42.0922C40.8574 41.681 41.0322 41.1494 40.9951 40.6111ZM35.0693 21.0751C35.1981 21.0213 35.34 21.007 35.477 21.0339C35.614 21.0608 35.7399 21.1278 35.8388 21.2263C35.9378 21.3249 36.0053 21.4506 36.0328 21.5875C36.0604 21.7245 36.0467 21.8665 35.9936 21.9957C35.9405 22.1248 35.8502 22.2354 35.7343 22.3132C35.6184 22.3911 35.482 22.4328 35.3424 22.4331C35.2028 22.4334 35.0663 22.3923 34.9501 22.3149C34.8338 22.2375 34.7431 22.1274 34.6894 21.9985C34.6538 21.9129 34.6353 21.8211 34.6351 21.7284C34.6348 21.6356 34.6529 21.5438 34.6881 21.458C34.7234 21.3723 34.7752 21.2943 34.8406 21.2286C34.906 21.1629 34.9837 21.1107 35.0693 21.0751ZM28.8017 14.6926C28.9413 14.6926 29.0778 14.734 29.1938 14.8116C29.3099 14.8892 29.4004 14.9995 29.4538 15.1286C29.5072 15.2576 29.5212 15.3996 29.494 15.5366C29.4667 15.6736 29.3995 15.7994 29.3008 15.8982C29.2021 15.997 29.0763 16.0642 28.9394 16.0915C28.8025 16.1187 28.6606 16.1047 28.5316 16.0513C28.4027 15.9978 28.2924 15.9073 28.2149 15.7912C28.1373 15.675 28.0959 15.5385 28.0959 15.3988C28.0959 15.2115 28.1703 15.0319 28.3027 14.8995C28.435 14.767 28.6145 14.6926 28.8017 14.6926ZM24.9582 5.27805L26.2211 6.2403C26.2749 6.28132 26.3201 6.33255 26.3542 6.39106C26.3882 6.44958 26.4104 6.51423 26.4195 6.58132C26.4286 6.64841 26.4243 6.71664 26.4071 6.7821C26.3898 6.84756 26.3598 6.90898 26.3188 6.96284C26.2778 7.0167 26.2266 7.06196 26.1681 7.09602C26.1096 7.13009 26.045 7.15229 25.978 7.16137C25.8426 7.17971 25.7054 7.14346 25.5967 7.06061L24.2184 6.01004C24.43 5.82825 24.9301 5.30451 24.9582 5.27805ZM23.3633 6.62313L23.9169 7.79467C23.9753 7.91831 23.9823 8.06011 23.9362 8.18888C23.8902 8.31764 23.7949 8.42283 23.6713 8.4813C23.5478 8.53977 23.4061 8.54673 23.2774 8.50065C23.1487 8.45457 23.0436 8.35922 22.9851 8.23559L22.428 7.05649C22.7522 6.94045 23.0652 6.79541 23.3633 6.62313ZM19.9844 7.36922C20.1561 7.38503 20.8561 7.38228 21.0148 7.36922V8.51429C21.0148 8.65101 20.9605 8.78213 20.8639 8.8788C20.7673 8.97547 20.6362 9.02978 20.4996 9.02978C20.363 9.02978 20.2319 8.97547 20.1353 8.8788C20.0387 8.78213 19.9844 8.65101 19.9844 8.51429V7.36922ZM20.5106 14.6926C20.6502 14.6926 20.7866 14.734 20.9027 14.8116C21.0188 14.8892 21.1092 14.9995 21.1626 15.1286C21.2161 15.2576 21.23 15.3996 21.2028 15.5366C21.1756 15.6736 21.1084 15.7994 21.0097 15.8982C20.9109 15.997 20.7852 16.0642 20.6483 16.0915C20.5114 16.1187 20.3695 16.1047 20.2405 16.0513C20.1115 15.9978 20.0013 15.9073 19.9237 15.7912C19.8462 15.675 19.8048 15.5385 19.8048 15.3988C19.8048 15.2115 19.8792 15.0319 20.0115 14.8995C20.1439 14.767 20.3234 14.6926 20.5106 14.6926ZM17.0823 7.79467L17.6346 6.62623C17.9334 6.79714 18.2471 6.94069 18.5718 7.05511L18.0141 8.23559C17.9851 8.2968 17.9444 8.35172 17.8943 8.3972C17.8442 8.44268 17.7855 8.47783 17.7218 8.50065C17.6581 8.52347 17.5905 8.5335 17.5229 8.53018C17.4553 8.52686 17.389 8.51025 17.3279 8.4813C17.2667 8.45235 17.2118 8.41163 17.1663 8.36145C17.1209 8.31128 17.0858 8.25264 17.063 8.18888C17.0402 8.12512 17.0301 8.05749 17.0335 7.98985C17.0368 7.92221 17.0534 7.85589 17.0823 7.79467ZM14.7781 6.24098L16.0465 5.27358C16.0633 5.28973 16.5853 5.84578 16.7787 6.01176L15.4025 7.0613C15.2938 7.14415 15.1566 7.18039 15.0212 7.16206C14.8858 7.14372 14.7632 7.07231 14.6804 6.96353C14.5976 6.85475 14.5614 6.71751 14.5797 6.58201C14.598 6.4465 14.6694 6.32383 14.7781 6.24098ZM12.2191 14.6926C12.3587 14.6926 12.4951 14.734 12.6112 14.8116C12.7273 14.8892 12.8177 14.9995 12.8712 15.1286C12.9246 15.2576 12.9386 15.3996 12.9113 15.5366C12.8841 15.6736 12.8169 15.7994 12.7182 15.8982C12.6195 15.997 12.4937 16.0642 12.3568 16.0915C12.2199 16.1187 12.078 16.1047 11.949 16.0513C11.82 15.9978 11.7098 15.9073 11.6323 15.7912C11.5547 15.675 11.5133 15.5385 11.5133 15.3988C11.5133 15.2115 11.5877 15.0319 11.72 14.8995C11.8524 14.767 12.0319 14.6926 12.2191 14.6926ZM5.00672 21.4548C5.06035 21.3259 5.15097 21.2158 5.26712 21.1384C5.38328 21.061 5.51975 21.0198 5.6593 21.02C5.79885 21.0202 5.93521 21.0618 6.05115 21.1395C6.16708 21.2172 6.25739 21.3276 6.31065 21.4566C6.36392 21.5857 6.37775 21.7277 6.3504 21.8646C6.32305 22.0015 6.25574 22.1273 6.15699 22.2259C6.05824 22.3246 5.93248 22.3918 5.79559 22.4189C5.65871 22.4461 5.51685 22.432 5.38794 22.3786C5.3023 22.343 5.2245 22.2909 5.15899 22.2252C5.09348 22.1596 5.04156 22.0816 5.00618 21.9959C4.97081 21.9101 4.95268 21.8182 4.95283 21.7254C4.95298 21.6326 4.97141 21.5408 5.00706 21.4551L5.00672 21.4548ZM2.94054 41.872L1.96516 41.785C1.94764 41.785 1.93081 41.7778 1.91433 41.7751L2.0098 40.253C2.01969 40.1176 2.08256 39.9915 2.18478 39.9022C2.28699 39.8129 2.42029 39.7676 2.55572 39.776C2.69115 39.7845 2.81777 39.8461 2.90809 39.9474C2.9984 40.0488 3.04512 40.1817 3.03808 40.3172L2.94054 41.872ZM5.43362 42.0943L4.40706 42.0026L4.5022 40.487C4.50573 40.419 4.52271 40.3523 4.55216 40.2908C4.58161 40.2294 4.62295 40.1744 4.67378 40.129C4.72461 40.0837 4.78393 40.0488 4.8483 40.0266C4.91267 40.0043 4.98081 39.995 5.04879 39.9992C5.11676 40.0035 5.18322 40.0212 5.24432 40.0513C5.30542 40.0814 5.35994 40.1234 5.40474 40.1747C5.44953 40.226 5.48371 40.2857 5.50529 40.3504C5.52688 40.415 5.53544 40.4833 5.53048 40.5513L5.43362 42.0943ZM6.45366 37.3769C6.16639 37.5405 5.84176 37.627 5.51124 37.6281C5.36372 37.628 5.21666 37.6117 5.07266 37.5797C4.81 37.5168 4.5633 37.3999 4.34825 37.2364C4.1332 37.0729 3.9545 36.8665 3.82354 36.6301L3.29052 35.6985C3.23688 35.6051 3.16207 35.5256 3.0721 35.4665C2.98214 35.4073 2.87954 35.3702 2.77259 35.358C2.66564 35.3458 2.55733 35.359 2.45639 35.3964C2.35545 35.4338 2.26471 35.4944 2.19149 35.5734L1.37924 36.4514C1.46063 35.5424 1.67597 33.3272 1.69727 33.1145C1.91524 32.951 2.16542 32.8358 2.43126 32.7763C2.69709 32.7169 2.97251 32.7146 3.23928 32.7697C3.50605 32.8248 3.75809 32.9359 3.97871 33.0958C4.19933 33.2556 4.3835 33.4606 4.51902 33.697L5.22034 34.9256C5.30928 35.0813 5.45555 35.1961 5.62791 35.2454C5.80027 35.2947 5.98506 35.2747 6.14284 35.1895L6.54124 34.9744L6.45366 37.3769ZM3.1339 29.2473C3.18759 29.1183 3.27829 29.0082 3.39453 28.9309C3.51076 28.8535 3.64732 28.8124 3.78692 28.8127C3.92652 28.813 4.06289 28.8547 4.1788 28.9325C4.2947 29.0104 4.38493 29.1209 4.43806 29.2501C4.4912 29.3792 4.50486 29.5213 4.47731 29.6582C4.44977 29.7952 4.38226 29.9209 4.28332 30.0194C4.18438 30.118 4.05845 30.1849 3.92147 30.2118C3.78449 30.2388 3.6426 30.2245 3.51376 30.1707C3.34103 30.0986 3.20398 29.9609 3.13275 29.7877C3.06152 29.6145 3.06193 29.4201 3.1339 29.2473ZM6.87129 25.8643L6.48697 26.0849C6.05869 26.3383 5.56951 26.4702 5.07197 26.4664C4.81912 26.4661 4.5674 26.4326 4.32326 26.3667C3.75459 26.2313 3.26149 25.8785 2.94947 25.3839L2.6493 24.9608C2.67369 24.7794 2.9505 22.7511 3.06384 21.9902L4.64713 24.224C4.67733 24.2674 4.71584 24.3043 4.7604 24.3327C4.80497 24.3611 4.85472 24.3803 4.90678 24.3893C5.08263 24.4232 5.26473 24.3991 5.42572 24.3206L6.86511 23.4958C6.90598 24.0401 6.87129 25.8643 6.87129 25.8643ZM10.7114 44.969H9.68103V42.8215C9.68103 42.6848 9.7353 42.5537 9.83192 42.457C9.92853 42.3603 10.0596 42.306 10.1962 42.306C10.3328 42.306 10.4639 42.3603 10.5605 42.457C10.6571 42.5537 10.7114 42.6848 10.7114 42.8215V44.969ZM12.1147 39.5612C11.9751 39.5612 11.8386 39.5198 11.7225 39.4422C11.6065 39.3645 11.516 39.2542 11.4626 39.1252C11.4092 38.9961 11.3952 38.8541 11.4225 38.7171C11.4498 38.5801 11.517 38.4542 11.6157 38.3555C11.7145 38.2567 11.8403 38.1895 11.9772 38.1623C12.1141 38.1351 12.2561 38.1491 12.385 38.2026C12.514 38.2561 12.6242 38.3467 12.7017 38.4629C12.7792 38.5791 12.8205 38.7156 12.8205 38.8553C12.8204 39.0426 12.746 39.2221 12.6136 39.3545C12.4813 39.4868 12.3018 39.5612 12.1147 39.5612ZM14.153 44.969H13.1227V42.8215C13.1227 42.6848 13.177 42.5537 13.2736 42.457C13.3702 42.3603 13.5012 42.306 13.6379 42.306C13.7745 42.306 13.9055 42.3603 14.0022 42.457C14.0988 42.5537 14.153 42.6848 14.153 42.8215V44.969ZM17.5947 44.969H16.5644V42.8215C16.5644 42.6848 16.6187 42.5537 16.7153 42.457C16.8119 42.3603 16.9429 42.306 17.0796 42.306C17.2162 42.306 17.3472 42.3603 17.4438 42.457C17.5404 42.5537 17.5947 42.6848 17.5947 42.8215V44.969ZM21.0364 44.969H20.0061V42.8215C20.0061 42.6848 20.0603 42.5537 20.157 42.457C20.2536 42.3603 20.3846 42.306 20.5212 42.306C20.6579 42.306 20.7889 42.3603 20.8855 42.457C20.9821 42.5537 21.0364 42.6848 21.0364 42.8215V44.969ZM20.4821 39.5612C20.3424 39.5615 20.2058 39.5203 20.0896 39.4428C19.9733 39.3654 19.8826 39.2551 19.829 39.1261C19.7754 38.9971 19.7612 38.855 19.7883 38.7179C19.8154 38.5808 19.8826 38.4549 19.9813 38.356C20.08 38.2571 20.2057 38.1897 20.3427 38.1624C20.4797 38.1351 20.6217 38.149 20.7507 38.2025C20.8798 38.2559 20.99 38.3465 21.0676 38.4627C21.1452 38.5789 21.1866 38.7156 21.1865 38.8553C21.1864 39.0423 21.1122 39.2217 20.9801 39.354C20.8481 39.4863 20.669 39.5608 20.4821 39.5612ZM24.4781 44.969H23.4477V42.8215C23.4477 42.6848 23.502 42.5537 23.5986 42.457C23.6952 42.3603 23.8263 42.306 23.9629 42.306C24.0995 42.306 24.2306 42.3603 24.3272 42.457C24.4238 42.5537 24.4781 42.6848 24.4781 42.8215V44.969ZM27.9198 44.969H26.8894V42.8215C26.8894 42.6848 26.9437 42.5537 27.0403 42.457C27.1369 42.3603 27.268 42.306 27.4046 42.306C27.5412 42.306 27.6723 42.3603 27.7689 42.457C27.8655 42.5537 27.9198 42.6848 27.9198 42.8215V44.969ZM28.6973 39.5612C28.5577 39.5612 28.4212 39.5198 28.3052 39.4422C28.1891 39.3645 28.0986 39.2542 28.0452 39.1252C27.9918 38.9961 27.9779 38.8541 28.0051 38.7171C28.0324 38.5801 28.0996 38.4542 28.1984 38.3555C28.2971 38.2567 28.4229 38.1895 28.5598 38.1623C28.6968 38.1351 28.8387 38.1491 28.9677 38.2026C29.0966 38.2561 29.2068 38.3467 29.2843 38.4629C29.3618 38.5791 29.4032 38.7156 29.4031 38.8553C29.403 39.0426 29.3286 39.2221 29.1963 39.3545C29.0639 39.4868 28.8844 39.5612 28.6973 39.5612ZM31.3614 44.969H30.3311V42.8215C30.3311 42.6848 30.3854 42.5537 30.482 42.457C30.5786 42.3603 30.7096 42.306 30.8463 42.306C30.9829 42.306 31.1139 42.3603 31.2105 42.457C31.3072 42.5537 31.3614 42.6848 31.3614 42.8215V44.969ZM31.9295 34.051C31.4569 34.574 30.8083 34.9045 30.1076 34.9793C29.4069 35.0541 28.7032 34.868 28.131 34.4565L25.5345 32.5938C25.3828 32.4867 25.1991 32.4345 25.0137 32.4457C24.8283 32.4569 24.6522 32.531 24.5145 32.6557L22.3679 34.6146C21.8584 35.0831 21.1916 35.3431 20.4996 35.3431C19.8076 35.3431 19.1408 35.0831 18.6312 34.6146L16.4847 32.6557C16.3474 32.5302 16.1712 32.4556 15.9856 32.4443C15.8 32.4331 15.6161 32.4858 15.4647 32.5938L12.8682 34.4565C12.2928 34.8696 11.5849 35.055 10.881 34.9769C10.1771 34.8989 9.52702 34.5629 9.05595 34.0338L7.66019 32.5409L7.76563 29.6329L10.5774 32.642C10.7097 32.7968 10.8949 32.8967 11.0969 32.9221C11.2989 32.9475 11.5031 32.8966 11.6696 32.7794L14.266 30.9168C14.8024 30.5366 15.4521 30.3505 16.1082 30.3893C16.7644 30.428 17.3877 30.6892 17.8757 31.1298L20.0188 33.0921C20.1505 33.2116 20.3219 33.2777 20.4996 33.2777C20.6773 33.2777 20.8487 33.2116 20.9804 33.0921L23.1235 31.1298C23.6115 30.6892 24.2348 30.428 24.891 30.3893C25.5471 30.3505 26.1968 30.5366 26.7332 30.9168L29.3296 32.7794C29.4927 32.8956 29.6928 32.9475 29.8918 32.9253C30.0907 32.9031 30.2745 32.8084 30.408 32.6591L30.4321 32.6351L33.236 29.704L33.339 32.576L31.9295 34.051ZM15.2449 26.5368C15.2449 26.3971 15.2863 26.2605 15.3639 26.1443C15.4416 26.0281 15.5519 25.9376 15.681 25.8842C15.81 25.8308 15.952 25.8169 16.089 25.8443C16.2259 25.8717 16.3517 25.9391 16.4503 26.0381C16.549 26.137 16.616 26.263 16.6431 26.4001C16.6701 26.5372 16.6559 26.6793 16.6022 26.8083C16.5485 26.9373 16.4578 27.0475 16.3415 27.1249C16.2252 27.2023 16.0886 27.2434 15.9489 27.2431C15.762 27.2426 15.583 27.168 15.451 27.0356C15.319 26.9032 15.2449 26.7238 15.2449 26.5368ZM23.536 26.5368C23.536 26.3972 23.5774 26.2606 23.655 26.1445C23.7325 26.0283 23.8427 25.9378 23.9717 25.8844C24.1007 25.8309 24.2426 25.8169 24.3795 25.8442C24.5164 25.8714 24.6421 25.9387 24.7409 26.0375C24.8396 26.1362 24.9068 26.2621 24.934 26.3991C24.9612 26.5361 24.9473 26.678 24.8938 26.8071C24.8404 26.9361 24.75 27.0464 24.6339 27.124C24.5178 27.2016 24.3814 27.2431 24.2418 27.2431C24.149 27.2433 24.057 27.2252 23.9712 27.1898C23.8853 27.1544 23.8073 27.1024 23.7416 27.0368C23.6759 26.9712 23.6238 26.8933 23.5882 26.8075C23.5526 26.7217 23.5343 26.6297 23.5343 26.5368H23.536ZM33.3988 19.8317L31.9741 21.3905C31.5074 21.9639 30.8399 22.3377 30.1075 22.4361C29.375 22.5344 28.6326 22.3498 28.0314 21.9198L25.5517 20.143C25.3952 20.0317 25.2053 19.9772 25.0136 19.9884C24.8219 19.9997 24.6398 20.076 24.4973 20.2049L22.1687 22.3287C21.7141 22.7485 21.1182 22.9816 20.4996 22.9816C19.881 22.9816 19.285 22.7485 18.8304 22.3287L16.5019 20.2049C16.3588 20.0759 16.1761 19.9995 15.9838 19.9883C15.7916 19.9771 15.6012 20.0316 15.4441 20.143L12.9678 21.9198C12.3691 22.35 11.6288 22.5355 10.8981 22.4384C10.1674 22.3413 9.5012 21.969 9.03535 21.3974L7.5994 19.8028C7.58188 19.5825 7.40363 17.3312 7.33735 16.4312L10.6221 20.0846C10.7565 20.2533 10.9505 20.3637 11.164 20.3932C11.3776 20.4226 11.5942 20.3687 11.7692 20.2427L14.2454 18.466C14.7873 18.0814 15.444 17.8933 16.1072 17.9327C16.7703 17.972 17.4002 18.2365 17.8928 18.6825L20.0366 20.6414C20.1633 20.7573 20.3287 20.8216 20.5003 20.8216C20.6719 20.8216 20.8373 20.7573 20.9639 20.6414L23.1077 18.6825C23.6004 18.2365 24.2302 17.972 24.8934 17.9327C25.5565 17.8933 26.2133 18.0814 26.7551 18.466L29.1936 20.2166C29.3741 20.3396 29.5927 20.394 29.8098 20.3698C30.0268 20.3455 30.2281 20.2444 30.3771 20.0846C31.1904 19.1818 33.6557 16.4958 33.6557 16.4958C33.5901 17.3883 33.4132 19.6148 33.397 19.8317H33.3988ZM34.1296 25.8643C34.1296 25.8643 34.0953 24.0305 34.1351 23.493L35.5752 24.3178C35.71 24.3867 35.862 24.4144 36.0124 24.3976C36.0857 24.3912 36.1567 24.3688 36.2204 24.3319C36.2841 24.295 36.3389 24.2446 36.3809 24.1841L37.9374 21.9895C38.0521 22.7614 38.3272 24.7783 38.3516 24.9601L38.0497 25.3839C37.7377 25.8785 37.2446 26.2313 36.6759 26.3667C36.4318 26.4326 36.1801 26.4661 35.9272 26.4664C35.4297 26.4702 34.9405 26.3383 34.5122 26.0849L34.1296 25.8643ZM37.4872 30.1707C37.3583 30.2245 37.2164 30.2388 37.0794 30.2118C36.9425 30.1849 36.8165 30.118 36.7176 30.0194C36.6186 29.9209 36.5511 29.7952 36.5236 29.6582C36.496 29.5213 36.5097 29.3792 36.5628 29.2501C36.616 29.1209 36.7062 29.0104 36.8221 28.9325C36.938 28.8547 37.0744 28.813 37.214 28.8127C37.3536 28.8124 37.4901 28.8535 37.6064 28.9309C37.7226 29.0082 37.8133 29.1183 37.867 29.2473C37.9026 29.333 37.921 29.4249 37.9211 29.5177C37.9212 29.6105 37.903 29.7024 37.8676 29.7882C37.8322 29.8739 37.7802 29.9519 37.7146 30.0175C37.649 30.0832 37.5711 30.1352 37.4854 30.1707H37.4872ZM35.5669 42.0957L35.4701 40.5527C35.4651 40.4847 35.4737 40.4164 35.4953 40.3518C35.5169 40.2871 35.551 40.2274 35.5958 40.1761C35.6406 40.1247 35.6951 40.0828 35.7562 40.0527C35.8173 40.0226 35.8838 40.0049 35.9518 40.0006C36.0198 39.9964 36.0879 40.0057 36.1523 40.0279C36.2166 40.0502 36.276 40.085 36.3268 40.1304C36.3776 40.1758 36.4189 40.2307 36.4484 40.2922C36.4779 40.3536 36.4948 40.4203 36.4984 40.4884L36.5935 42.0043L35.5669 42.0957ZM39.0358 41.7864L38.0597 41.8733L37.9621 40.3186C37.9551 40.183 38.0018 40.0501 38.0921 39.9488C38.1824 39.8475 38.3091 39.7859 38.4445 39.7774C38.5799 39.7689 38.7132 39.8143 38.8154 39.9036C38.9177 39.9929 38.9805 40.1189 38.9904 40.2544L39.0859 41.7768C39.0673 41.7781 39.0516 41.7836 39.0344 41.7854L39.0358 41.7864ZM38.8101 35.5747C38.7369 35.4958 38.6461 35.4352 38.5452 35.3978C38.4443 35.3604 38.336 35.3472 38.229 35.3594C38.1221 35.3716 38.0195 35.4087 37.9295 35.4678C37.8395 35.527 37.7647 35.6064 37.7111 35.6998L37.178 36.6315C37.0471 36.8678 36.8684 37.0743 36.6533 37.2378C36.4383 37.4013 36.1916 37.5182 35.9289 37.581C35.7849 37.6131 35.6379 37.6293 35.4904 37.6295C35.1598 37.6284 34.8352 37.5418 34.5479 37.3783L34.4607 34.9754L34.8591 35.1905C35.0169 35.2757 35.2017 35.2958 35.374 35.2464C35.5464 35.1971 35.6927 35.0823 35.7816 34.9266L36.4802 33.697C36.6156 33.4607 36.7995 33.2559 37.0199 33.0961C37.2403 32.9363 37.4921 32.8251 37.7586 32.7699C38.0251 32.7146 38.3003 32.7167 38.566 32.7758C38.8317 32.8349 39.0818 32.9497 39.2999 33.1128C39.3208 33.3241 39.5372 35.54 39.6193 36.4514L38.8101 35.5747Z" fill="#6684FF"/>
<path d="M40.9951 40.6111C40.9048 39.3966 40.8076 38.1907 40.7059 37.0267C40.6063 35.8837 40.5009 34.756 40.3896 33.6437C40.0761 30.4281 39.7093 27.2754 39.2985 24.2738C39.1594 23.2356 39.0169 22.2373 38.875 21.3063C38.4014 17.8709 37.7258 14.4665 36.8518 11.1106C36.5406 10.0271 35.9776 9.03258 35.2087 8.20849C34.4398 7.3844 33.4868 6.75412 32.4278 6.36917L26.2534 4.12542C25.8817 3.98789 25.4771 3.96684 25.0932 4.06507C24.7093 4.16329 24.3644 4.37613 24.1044 4.67527C24.08 4.7007 24.056 4.72819 24.0357 4.75156C23.5996 5.25438 23.0613 5.65842 22.4568 5.93676C21.8524 6.21509 21.1955 6.36133 20.5302 6.36573H20.4996C19.8408 6.36605 19.1893 6.22736 18.5877 5.95869C17.9861 5.69003 17.4478 5.29744 17.0081 4.80655C17.0081 4.80655 16.9308 4.71445 16.8941 4.66908C16.6347 4.36937 16.2897 4.15651 15.9056 4.05923C15.5215 3.96194 15.1168 3.98493 14.7462 4.12507L8.57204 6.36883C7.51281 6.75381 6.55969 7.38422 5.79067 8.2085C5.02164 9.03278 4.45853 10.0275 4.14742 11.1113C3.27358 14.4668 2.59833 17.8709 2.1252 21.306C1.98473 22.2284 1.84186 23.2257 1.70139 24.2704C1.70139 24.2766 1.70139 24.2828 1.69898 24.2896C1.29372 27.2571 0.926229 30.4068 0.607167 33.6492C0.496921 34.7582 0.393544 35.8871 0.293944 37.0267C0.19091 38.1907 0.0950886 39.398 0.00476214 40.6114C-0.031798 41.1496 0.143234 41.6808 0.492528 42.0917C0.841821 42.5026 1.33773 42.7606 1.87449 42.8108L6.24347 43.2006L6.21325 44.0185C6.20402 44.2751 6.24655 44.531 6.33828 44.7709C6.43002 45.0107 6.56909 45.2296 6.7472 45.4146C6.92531 45.5995 7.13881 45.7466 7.37497 45.8472C7.61113 45.9478 7.86512 45.9998 8.12178 46H32.8774C33.1341 45.9998 33.3881 45.948 33.6244 45.8474C33.8606 45.7469 34.0741 45.5998 34.2523 45.4149C34.4305 45.23 34.5696 45.0111 34.6614 44.7713C34.7532 44.5314 34.7958 44.2755 34.7866 44.0188L34.7564 43.2019L39.1261 42.8122C39.663 42.7618 40.159 42.5035 40.5082 42.0922C40.8574 41.681 41.0322 41.1494 40.9951 40.6111ZM35.0693 21.0751C35.1981 21.0213 35.34 21.007 35.477 21.0339C35.614 21.0608 35.7399 21.1278 35.8388 21.2263C35.9378 21.3249 36.0053 21.4506 36.0328 21.5875C36.0604 21.7245 36.0467 21.8665 35.9936 21.9957C35.9405 22.1248 35.8502 22.2354 35.7343 22.3132C35.6184 22.3911 35.482 22.4328 35.3424 22.4331C35.2028 22.4334 35.0663 22.3923 34.9501 22.3149C34.8338 22.2375 34.7431 22.1274 34.6894 21.9985C34.6538 21.9129 34.6353 21.8211 34.6351 21.7284C34.6348 21.6356 34.6529 21.5438 34.6881 21.458C34.7234 21.3723 34.7752 21.2943 34.8406 21.2286C34.906 21.1629 34.9837 21.1107 35.0693 21.0751ZM28.8017 14.6926C28.9413 14.6926 29.0778 14.734 29.1938 14.8116C29.3099 14.8892 29.4004 14.9995 29.4538 15.1286C29.5072 15.2576 29.5212 15.3996 29.494 15.5366C29.4667 15.6736 29.3995 15.7994 29.3008 15.8982C29.2021 15.997 29.0763 16.0642 28.9394 16.0915C28.8025 16.1187 28.6606 16.1047 28.5316 16.0513C28.4027 15.9978 28.2924 15.9073 28.2149 15.7912C28.1373 15.675 28.0959 15.5385 28.0959 15.3988C28.0959 15.2115 28.1703 15.0319 28.3027 14.8995C28.435 14.767 28.6145 14.6926 28.8017 14.6926ZM24.9582 5.27805L26.2211 6.2403C26.2749 6.28132 26.3201 6.33255 26.3542 6.39106C26.3882 6.44958 26.4104 6.51423 26.4195 6.58132C26.4286 6.64841 26.4243 6.71664 26.4071 6.7821C26.3898 6.84756 26.3598 6.90898 26.3188 6.96284C26.2778 7.0167 26.2266 7.06196 26.1681 7.09602C26.1096 7.13009 26.045 7.15229 25.978 7.16137C25.8426 7.17971 25.7054 7.14346 25.5967 7.06061L24.2184 6.01004C24.43 5.82825 24.9301 5.30451 24.9582 5.27805ZM23.3633 6.62313L23.9169 7.79467C23.9753 7.91831 23.9823 8.06011 23.9362 8.18888C23.8902 8.31764 23.7949 8.42283 23.6713 8.4813C23.5478 8.53977 23.4061 8.54673 23.2774 8.50065C23.1487 8.45457 23.0436 8.35922 22.9851 8.23559L22.428 7.05649C22.7522 6.94045 23.0652 6.79541 23.3633 6.62313ZM19.9844 7.36922C20.1561 7.38503 20.8561 7.38228 21.0148 7.36922V8.51429C21.0148 8.65101 20.9605 8.78213 20.8639 8.8788C20.7673 8.97547 20.6362 9.02978 20.4996 9.02978C20.363 9.02978 20.2319 8.97547 20.1353 8.8788C20.0387 8.78213 19.9844 8.65101 19.9844 8.51429V7.36922ZM20.5106 14.6926C20.6502 14.6926 20.7866 14.734 20.9027 14.8116C21.0188 14.8892 21.1092 14.9995 21.1626 15.1286C21.2161 15.2576 21.23 15.3996 21.2028 15.5366C21.1756 15.6736 21.1084 15.7994 21.0097 15.8982C20.9109 15.997 20.7852 16.0642 20.6483 16.0915C20.5114 16.1187 20.3695 16.1047 20.2405 16.0513C20.1115 15.9978 20.0013 15.9073 19.9237 15.7912C19.8462 15.675 19.8048 15.5385 19.8048 15.3988C19.8048 15.2115 19.8792 15.0319 20.0115 14.8995C20.1439 14.767 20.3234 14.6926 20.5106 14.6926ZM17.0823 7.79467L17.6346 6.62623C17.9334 6.79714 18.2471 6.94069 18.5718 7.05511L18.0141 8.23559C17.9851 8.2968 17.9444 8.35172 17.8943 8.3972C17.8442 8.44268 17.7855 8.47783 17.7218 8.50065C17.6581 8.52347 17.5905 8.5335 17.5229 8.53018C17.4553 8.52686 17.389 8.51025 17.3279 8.4813C17.2667 8.45235 17.2118 8.41163 17.1663 8.36145C17.1209 8.31128 17.0858 8.25264 17.063 8.18888C17.0402 8.12512 17.0301 8.05749 17.0335 7.98985C17.0368 7.92221 17.0534 7.85589 17.0823 7.79467ZM14.7781 6.24098L16.0465 5.27358C16.0633 5.28973 16.5853 5.84578 16.7787 6.01176L15.4025 7.0613C15.2938 7.14415 15.1566 7.18039 15.0212 7.16206C14.8858 7.14372 14.7632 7.07231 14.6804 6.96353C14.5976 6.85475 14.5614 6.71751 14.5797 6.58201C14.598 6.4465 14.6694 6.32383 14.7781 6.24098ZM12.2191 14.6926C12.3587 14.6926 12.4951 14.734 12.6112 14.8116C12.7273 14.8892 12.8177 14.9995 12.8712 15.1286C12.9246 15.2576 12.9386 15.3996 12.9113 15.5366C12.8841 15.6736 12.8169 15.7994 12.7182 15.8982C12.6195 15.997 12.4937 16.0642 12.3568 16.0915C12.2199 16.1187 12.078 16.1047 11.949 16.0513C11.82 15.9978 11.7098 15.9073 11.6323 15.7912C11.5547 15.675 11.5133 15.5385 11.5133 15.3988C11.5133 15.2115 11.5877 15.0319 11.72 14.8995C11.8524 14.767 12.0319 14.6926 12.2191 14.6926ZM5.00672 21.4548C5.06035 21.3259 5.15097 21.2158 5.26712 21.1384C5.38328 21.061 5.51975 21.0198 5.6593 21.02C5.79885 21.0202 5.93521 21.0618 6.05115 21.1395C6.16708 21.2172 6.25739 21.3276 6.31065 21.4566C6.36392 21.5857 6.37775 21.7277 6.3504 21.8646C6.32305 22.0015 6.25574 22.1273 6.15699 22.2259C6.05824 22.3246 5.93248 22.3918 5.79559 22.4189C5.65871 22.4461 5.51685 22.432 5.38794 22.3786C5.3023 22.343 5.2245 22.2909 5.15899 22.2252C5.09348 22.1596 5.04156 22.0816 5.00618 21.9959C4.97081 21.9101 4.95268 21.8182 4.95283 21.7254C4.95298 21.6326 4.97141 21.5408 5.00706 21.4551L5.00672 21.4548ZM2.94054 41.872L1.96516 41.785C1.94764 41.785 1.93081 41.7778 1.91433 41.7751L2.0098 40.253C2.01969 40.1176 2.08256 39.9915 2.18478 39.9022C2.28699 39.8129 2.42029 39.7676 2.55572 39.776C2.69115 39.7845 2.81777 39.8461 2.90809 39.9474C2.9984 40.0488 3.04512 40.1817 3.03808 40.3172L2.94054 41.872ZM5.43362 42.0943L4.40706 42.0026L4.5022 40.487C4.50573 40.419 4.52271 40.3523 4.55216 40.2908C4.58161 40.2294 4.62295 40.1744 4.67378 40.129C4.72461 40.0837 4.78393 40.0488 4.8483 40.0266C4.91267 40.0043 4.98081 39.995 5.04879 39.9992C5.11676 40.0035 5.18322 40.0212 5.24432 40.0513C5.30542 40.0814 5.35994 40.1234 5.40474 40.1747C5.44953 40.226 5.48371 40.2857 5.50529 40.3504C5.52688 40.415 5.53544 40.4833 5.53048 40.5513L5.43362 42.0943ZM6.45366 37.3769C6.16639 37.5405 5.84176 37.627 5.51124 37.6281C5.36372 37.628 5.21666 37.6117 5.07266 37.5797C4.81 37.5168 4.5633 37.3999 4.34825 37.2364C4.1332 37.0729 3.9545 36.8665 3.82354 36.6301L3.29052 35.6985C3.23688 35.6051 3.16207 35.5256 3.0721 35.4665C2.98214 35.4073 2.87954 35.3702 2.77259 35.358C2.66564 35.3458 2.55733 35.359 2.45639 35.3964C2.35545 35.4338 2.26471 35.4944 2.19149 35.5734L1.37924 36.4514C1.46063 35.5424 1.67597 33.3272 1.69727 33.1145C1.91524 32.951 2.16542 32.8358 2.43126 32.7763C2.69709 32.7169 2.97251 32.7146 3.23928 32.7697C3.50605 32.8248 3.75809 32.9359 3.97871 33.0958C4.19933 33.2556 4.3835 33.4606 4.51902 33.697L5.22034 34.9256C5.30928 35.0813 5.45555 35.1961 5.62791 35.2454C5.80027 35.2947 5.98506 35.2747 6.14284 35.1895L6.54124 34.9744L6.45366 37.3769ZM3.1339 29.2473C3.18759 29.1183 3.27829 29.0082 3.39453 28.9309C3.51076 28.8535 3.64732 28.8124 3.78692 28.8127C3.92652 28.813 4.06289 28.8547 4.1788 28.9325C4.2947 29.0104 4.38493 29.1209 4.43806 29.2501C4.4912 29.3792 4.50486 29.5213 4.47731 29.6582C4.44977 29.7952 4.38226 29.9209 4.28332 30.0194C4.18438 30.118 4.05845 30.1849 3.92147 30.2118C3.78449 30.2388 3.6426 30.2245 3.51376 30.1707C3.34103 30.0986 3.20398 29.9609 3.13275 29.7877C3.06152 29.6145 3.06193 29.4201 3.1339 29.2473ZM6.87129 25.8643L6.48697 26.0849C6.05869 26.3383 5.56951 26.4702 5.07197 26.4664C4.81912 26.4661 4.5674 26.4326 4.32326 26.3667C3.75459 26.2313 3.26149 25.8785 2.94947 25.3839L2.6493 24.9608C2.67369 24.7794 2.9505 22.7511 3.06384 21.9902L4.64713 24.224C4.67733 24.2674 4.71584 24.3043 4.7604 24.3327C4.80497 24.3611 4.85472 24.3803 4.90678 24.3893C5.08263 24.4232 5.26473 24.3991 5.42572 24.3206L6.86511 23.4958C6.90598 24.0401 6.87129 25.8643 6.87129 25.8643ZM10.7114 44.969H9.68103V42.8215C9.68103 42.6848 9.7353 42.5537 9.83192 42.457C9.92853 42.3603 10.0596 42.306 10.1962 42.306C10.3328 42.306 10.4639 42.3603 10.5605 42.457C10.6571 42.5537 10.7114 42.6848 10.7114 42.8215V44.969ZM12.1147 39.5612C11.9751 39.5612 11.8386 39.5198 11.7225 39.4422C11.6065 39.3645 11.516 39.2542 11.4626 39.1252C11.4092 38.9961 11.3952 38.8541 11.4225 38.7171C11.4498 38.5801 11.517 38.4542 11.6157 38.3555C11.7145 38.2567 11.8403 38.1895 11.9772 38.1623C12.1141 38.1351 12.2561 38.1491 12.385 38.2026C12.514 38.2561 12.6242 38.3467 12.7017 38.4629C12.7792 38.5791 12.8205 38.7156 12.8205 38.8553C12.8204 39.0426 12.746 39.2221 12.6136 39.3545C12.4813 39.4868 12.3018 39.5612 12.1147 39.5612ZM14.153 44.969H13.1227V42.8215C13.1227 42.6848 13.177 42.5537 13.2736 42.457C13.3702 42.3603 13.5012 42.306 13.6379 42.306C13.7745 42.306 13.9055 42.3603 14.0022 42.457C14.0988 42.5537 14.153 42.6848 14.153 42.8215V44.969ZM17.5947 44.969H16.5644V42.8215C16.5644 42.6848 16.6187 42.5537 16.7153 42.457C16.8119 42.3603 16.9429 42.306 17.0796 42.306C17.2162 42.306 17.3472 42.3603 17.4438 42.457C17.5404 42.5537 17.5947 42.6848 17.5947 42.8215V44.969ZM21.0364 44.969H20.0061V42.8215C20.0061 42.6848 20.0603 42.5537 20.157 42.457C20.2536 42.3603 20.3846 42.306 20.5212 42.306C20.6579 42.306 20.7889 42.3603 20.8855 42.457C20.9821 42.5537 21.0364 42.6848 21.0364 42.8215V44.969ZM20.4821 39.5612C20.3424 39.5615 20.2058 39.5203 20.0896 39.4428C19.9733 39.3654 19.8826 39.2551 19.829 39.1261C19.7754 38.9971 19.7612 38.855 19.7883 38.7179C19.8154 38.5808 19.8826 38.4549 19.9813 38.356C20.08 38.2571 20.2057 38.1897 20.3427 38.1624C20.4797 38.1351 20.6217 38.149 20.7507 38.2025C20.8798 38.2559 20.99 38.3465 21.0676 38.4627C21.1452 38.5789 21.1866 38.7156 21.1865 38.8553C21.1864 39.0423 21.1122 39.2217 20.9801 39.354C20.8481 39.4863 20.669 39.5608 20.4821 39.5612ZM24.4781 44.969H23.4477V42.8215C23.4477 42.6848 23.502 42.5537 23.5986 42.457C23.6952 42.3603 23.8263 42.306 23.9629 42.306C24.0995 42.306 24.2306 42.3603 24.3272 42.457C24.4238 42.5537 24.4781 42.6848 24.4781 42.8215V44.969ZM27.9198 44.969H26.8894V42.8215C26.8894 42.6848 26.9437 42.5537 27.0403 42.457C27.1369 42.3603 27.268 42.306 27.4046 42.306C27.5412 42.306 27.6723 42.3603 27.7689 42.457C27.8655 42.5537 27.9198 42.6848 27.9198 42.8215V44.969ZM28.6973 39.5612C28.5577 39.5612 28.4212 39.5198 28.3052 39.4422C28.1891 39.3645 28.0986 39.2542 28.0452 39.1252C27.9918 38.9961 27.9779 38.8541 28.0051 38.7171C28.0324 38.5801 28.0996 38.4542 28.1984 38.3555C28.2971 38.2567 28.4229 38.1895 28.5598 38.1623C28.6968 38.1351 28.8387 38.1491 28.9677 38.2026C29.0966 38.2561 29.2068 38.3467 29.2843 38.4629C29.3618 38.5791 29.4032 38.7156 29.4031 38.8553C29.403 39.0426 29.3286 39.2221 29.1963 39.3545C29.0639 39.4868 28.8844 39.5612 28.6973 39.5612ZM31.3614 44.969H30.3311V42.8215C30.3311 42.6848 30.3854 42.5537 30.482 42.457C30.5786 42.3603 30.7096 42.306 30.8463 42.306C30.9829 42.306 31.1139 42.3603 31.2105 42.457C31.3072 42.5537 31.3614 42.6848 31.3614 42.8215V44.969ZM31.9295 34.051C31.4569 34.574 30.8083 34.9045 30.1076 34.9793C29.4069 35.0541 28.7032 34.868 28.131 34.4565L25.5345 32.5938C25.3828 32.4867 25.1991 32.4345 25.0137 32.4457C24.8283 32.4569 24.6522 32.531 24.5145 32.6557L22.3679 34.6146C21.8584 35.0831 21.1916 35.3431 20.4996 35.3431C19.8076 35.3431 19.1408 35.0831 18.6312 34.6146L16.4847 32.6557C16.3474 32.5302 16.1712 32.4556 15.9856 32.4443C15.8 32.4331 15.6161 32.4858 15.4647 32.5938L12.8682 34.4565C12.2928 34.8696 11.5849 35.055 10.881 34.9769C10.1771 34.8989 9.52702 34.5629 9.05595 34.0338L7.66019 32.5409L7.76563 29.6329L10.5774 32.642C10.7097 32.7968 10.8949 32.8967 11.0969 32.9221C11.2989 32.9475 11.5031 32.8966 11.6696 32.7794L14.266 30.9168C14.8024 30.5366 15.4521 30.3505 16.1082 30.3893C16.7644 30.428 17.3877 30.6892 17.8757 31.1298L20.0188 33.0921C20.1505 33.2116 20.3219 33.2777 20.4996 33.2777C20.6773 33.2777 20.8487 33.2116 20.9804 33.0921L23.1235 31.1298C23.6115 30.6892 24.2348 30.428 24.891 30.3893C25.5471 30.3505 26.1968 30.5366 26.7332 30.9168L29.3296 32.7794C29.4927 32.8956 29.6928 32.9475 29.8918 32.9253C30.0907 32.9031 30.2745 32.8084 30.408 32.6591L30.4321 32.6351L33.236 29.704L33.339 32.576L31.9295 34.051ZM15.2449 26.5368C15.2449 26.3971 15.2863 26.2605 15.3639 26.1443C15.4416 26.0281 15.5519 25.9376 15.681 25.8842C15.81 25.8308 15.952 25.8169 16.089 25.8443C16.2259 25.8717 16.3517 25.9391 16.4503 26.0381C16.549 26.137 16.616 26.263 16.6431 26.4001C16.6701 26.5372 16.6559 26.6793 16.6022 26.8083C16.5485 26.9373 16.4578 27.0475 16.3415 27.1249C16.2252 27.2023 16.0886 27.2434 15.9489 27.2431C15.762 27.2426 15.583 27.168 15.451 27.0356C15.319 26.9032 15.2449 26.7238 15.2449 26.5368ZM23.536 26.5368C23.536 26.3972 23.5774 26.2606 23.655 26.1445C23.7325 26.0283 23.8427 25.9378 23.9717 25.8844C24.1007 25.8309 24.2426 25.8169 24.3795 25.8442C24.5164 25.8714 24.6421 25.9387 24.7409 26.0375C24.8396 26.1362 24.9068 26.2621 24.934 26.3991C24.9612 26.5361 24.9473 26.678 24.8938 26.8071C24.8404 26.9361 24.75 27.0464 24.6339 27.124C24.5178 27.2016 24.3814 27.2431 24.2418 27.2431C24.149 27.2433 24.057 27.2252 23.9712 27.1898C23.8853 27.1544 23.8073 27.1024 23.7416 27.0368C23.6759 26.9712 23.6238 26.8933 23.5882 26.8075C23.5526 26.7217 23.5343 26.6297 23.5343 26.5368H23.536ZM33.3988 19.8317L31.9741 21.3905C31.5074 21.9639 30.8399 22.3377 30.1075 22.4361C29.375 22.5344 28.6326 22.3498 28.0314 21.9198L25.5517 20.143C25.3952 20.0317 25.2053 19.9772 25.0136 19.9884C24.8219 19.9997 24.6398 20.076 24.4973 20.2049L22.1687 22.3287C21.7141 22.7485 21.1182 22.9816 20.4996 22.9816C19.881 22.9816 19.285 22.7485 18.8304 22.3287L16.5019 20.2049C16.3588 20.0759 16.1761 19.9995 15.9838 19.9883C15.7916 19.9771 15.6012 20.0316 15.4441 20.143L12.9678 21.9198C12.3691 22.35 11.6288 22.5355 10.8981 22.4384C10.1674 22.3413 9.5012 21.969 9.03535 21.3974L7.5994 19.8028C7.58188 19.5825 7.40363 17.3312 7.33735 16.4312L10.6221 20.0846C10.7565 20.2533 10.9505 20.3637 11.164 20.3932C11.3776 20.4226 11.5942 20.3687 11.7692 20.2427L14.2454 18.466C14.7873 18.0814 15.444 17.8933 16.1072 17.9327C16.7703 17.972 17.4002 18.2365 17.8928 18.6825L20.0366 20.6414C20.1633 20.7573 20.3287 20.8216 20.5003 20.8216C20.6719 20.8216 20.8373 20.7573 20.9639 20.6414L23.1077 18.6825C23.6004 18.2365 24.2302 17.972 24.8934 17.9327C25.5565 17.8933 26.2133 18.0814 26.7551 18.466L29.1936 20.2166C29.3741 20.3396 29.5927 20.394 29.8098 20.3698C30.0268 20.3455 30.2281 20.2444 30.3771 20.0846C31.1904 19.1818 33.6557 16.4958 33.6557 16.4958C33.5901 17.3883 33.4132 19.6148 33.397 19.8317H33.3988ZM34.1296 25.8643C34.1296 25.8643 34.0953 24.0305 34.1351 23.493L35.5752 24.3178C35.71 24.3867 35.862 24.4144 36.0124 24.3976C36.0857 24.3912 36.1567 24.3688 36.2204 24.3319C36.2841 24.295 36.3389 24.2446 36.3809 24.1841L37.9374 21.9895C38.0521 22.7614 38.3272 24.7783 38.3516 24.9601L38.0497 25.3839C37.7377 25.8785 37.2446 26.2313 36.6759 26.3667C36.4318 26.4326 36.1801 26.4661 35.9272 26.4664C35.4297 26.4702 34.9405 26.3383 34.5122 26.0849L34.1296 25.8643ZM37.4872 30.1707C37.3583 30.2245 37.2164 30.2388 37.0794 30.2118C36.9425 30.1849 36.8165 30.118 36.7176 30.0194C36.6186 29.9209 36.5511 29.7952 36.5236 29.6582C36.496 29.5213 36.5097 29.3792 36.5628 29.2501C36.616 29.1209 36.7062 29.0104 36.8221 28.9325C36.938 28.8547 37.0744 28.813 37.214 28.8127C37.3536 28.8124 37.4901 28.8535 37.6064 28.9309C37.7226 29.0082 37.8133 29.1183 37.867 29.2473C37.9026 29.333 37.921 29.4249 37.9211 29.5177C37.9212 29.6105 37.903 29.7024 37.8676 29.7882C37.8322 29.8739 37.7802 29.9519 37.7146 30.0175C37.649 30.0832 37.5711 30.1352 37.4854 30.1707H37.4872ZM35.5669 42.0957L35.4701 40.5527C35.4651 40.4847 35.4737 40.4164 35.4953 40.3518C35.5169 40.2871 35.551 40.2274 35.5958 40.1761C35.6406 40.1247 35.6951 40.0828 35.7562 40.0527C35.8173 40.0226 35.8838 40.0049 35.9518 40.0006C36.0198 39.9964 36.0879 40.0057 36.1523 40.0279C36.2166 40.0502 36.276 40.085 36.3268 40.1304C36.3776 40.1758 36.4189 40.2307 36.4484 40.2922C36.4779 40.3536 36.4948 40.4203 36.4984 40.4884L36.5935 42.0043L35.5669 42.0957ZM39.0358 41.7864L38.0597 41.8733L37.9621 40.3186C37.9551 40.183 38.0018 40.0501 38.0921 39.9488C38.1824 39.8475 38.3091 39.7859 38.4445 39.7774C38.5799 39.7689 38.7132 39.8143 38.8154 39.9036C38.9177 39.9929 38.9805 40.1189 38.9904 40.2544L39.0859 41.7768C39.0673 41.7781 39.0516 41.7836 39.0344 41.7854L39.0358 41.7864ZM38.8101 35.5747C38.7369 35.4958 38.6461 35.4352 38.5452 35.3978C38.4443 35.3604 38.336 35.3472 38.229 35.3594C38.1221 35.3716 38.0195 35.4087 37.9295 35.4678C37.8395 35.527 37.7647 35.6064 37.7111 35.6998L37.178 36.6315C37.0471 36.8678 36.8684 37.0743 36.6533 37.2378C36.4383 37.4013 36.1916 37.5182 35.9289 37.581C35.7849 37.6131 35.6379 37.6293 35.4904 37.6295C35.1598 37.6284 34.8352 37.5418 34.5479 37.3783L34.4607 34.9754L34.8591 35.1905C35.0169 35.2757 35.2017 35.2958 35.374 35.2464C35.5464 35.1971 35.6927 35.0823 35.7816 34.9266L36.4802 33.697C36.6156 33.4607 36.7995 33.2559 37.0199 33.0961C37.2403 32.9363 37.4921 32.8251 37.7586 32.7699C38.0251 32.7146 38.3003 32.7167 38.566 32.7758C38.8317 32.8349 39.0818 32.9497 39.2999 33.1128C39.3208 33.3241 39.5372 35.54 39.6193 36.4514L38.8101 35.5747Z" fill="url(#paint0_linear_59_3844)"/>
<defs>
<linearGradient id="paint0_linear_59_3844" x1="-1.06541" y1="-6.57242" x2="40.841" y2="-2.81739" gradientUnits="userSpaceOnUse">
<stop stop-color="#6684FF"/>
<stop offset="1" stop-color="#435CC0"/>
</linearGradient>
</defs>
</svg>
